<svg width="15" height="11" viewBox="0 0 15 11" fill="none" xmlns="http://www.w3.org/2000/svg">
<g clip-path="url(#clip0_256_2)">
<mask id="path-1-inside-1_256_2" fill="white">
<path d="M0.484451 4.00166C0.0939265 3.61114 0.0939262 2.97797 0.484451 2.58745L6.58828 -3.51638C6.9788 -3.9069 7.61197 -3.9069 8.00249 -3.51638L14.1063 2.58745C14.4968 2.97797 14.4968 3.61114 14.1063 4.00166L8.00249 10.1055C7.61197 10.496 6.9788 10.496 6.58828 10.1055L0.484451 4.00166Z"/>
</mask>
<path d="M-0.222656 3.29456L7.29538 -4.22348L-0.222656 3.29456ZM14.1063 2.58745C15.2779 3.75902 15.2779 5.65852 14.1063 6.83009L9.4167 11.5197C8.24513 12.6913 6.34564 12.6913 5.17406 11.5197L7.29538 7.98417L12.6921 2.58745C13.0826 2.19692 13.3992 1.88034 13.3992 1.88034L14.1063 2.58745ZM9.4167 11.5197C8.24513 12.6913 6.34564 12.6913 5.17406 11.5197L0.484451 6.83009C-0.687122 5.65852 -0.687122 3.75902 0.484451 2.58745L1.19156 1.88034C1.19156 1.88034 1.50814 2.19692 1.89866 2.58745L7.29538 7.98417L9.4167 11.5197ZM7.29538 -4.22348L14.8134 3.29456L7.29538 -4.22348Z" fill="black" mask="url(#path-1-inside-1_256_2)"/>
</g>
<defs>
<clipPath id="clip0_256_2">
<rect width="15" height="11" fill="white"/>
</clipPath>
</defs>
</svg>
