<svg width="79" height="79" viewBox="0 0 79 79" fill="none" xmlns="http://www.w3.org/2000/svg">
<path d="M72.7243 33.0603L65.4333 26.8231L68.6181 24.8335L72.7243 33.0603Z" fill="#EF6622"/>
<rect x="3" y="3" width="73" height="25" rx="12.5" fill="#EF6622"/>
<path d="M25.255 15.25C25.255 14.98 25.34 14.755 25.51 14.575C25.68 14.385 25.915 14.29 26.215 14.29C26.505 14.29 26.73 14.385 26.89 14.575C27.06 14.755 27.145 14.98 27.145 15.25C27.145 15.52 27.06 15.75 26.89 15.94C26.73 16.12 26.505 16.21 26.215 16.21C25.915 16.21 25.68 16.12 25.51 15.94C25.34 15.75 25.255 15.52 25.255 15.25ZM27.921 15.25C27.921 14.98 28.006 14.755 28.176 14.575C28.346 14.385 28.581 14.29 28.881 14.29C29.171 14.29 29.396 14.385 29.556 14.575C29.726 14.755 29.811 14.98 29.811 15.25C29.811 15.52 29.726 15.75 29.556 15.94C29.396 16.12 29.171 16.21 28.881 16.21C28.581 16.21 28.346 16.12 28.176 15.94C28.006 15.75 27.921 15.52 27.921 15.25ZM30.587 15.25C30.587 14.98 30.672 14.755 30.842 14.575C31.012 14.385 31.247 14.29 31.547 14.29C31.837 14.29 32.062 14.385 32.222 14.575C32.392 14.755 32.477 14.98 32.477 15.25C32.477 15.52 32.392 15.75 32.222 15.94C32.062 16.12 31.837 16.21 31.547 16.21C31.247 16.21 31.012 16.12 30.842 15.94C30.672 15.75 30.587 15.52 30.587 15.25ZM35.9923 15.25C35.9923 14.98 36.0773 14.755 36.2473 14.575C36.4173 14.385 36.6523 14.29 36.9523 14.29C37.2423 14.29 37.4673 14.385 37.6273 14.575C37.7973 14.755 37.8823 14.98 37.8823 15.25C37.8823 15.52 37.7973 15.75 37.6273 15.94C37.4673 16.12 37.2423 16.21 36.9523 16.21C36.6523 16.21 36.4173 16.12 36.2473 15.94C36.0773 15.75 35.9923 15.52 35.9923 15.25ZM38.6583 15.25C38.6583 14.98 38.7433 14.755 38.9133 14.575C39.0833 14.385 39.3183 14.29 39.6183 14.29C39.9083 14.29 40.1333 14.385 40.2933 14.575C40.4633 14.755 40.5483 14.98 40.5483 15.25C40.5483 15.52 40.4633 15.75 40.2933 15.94C40.1333 16.12 39.9083 16.21 39.6183 16.21C39.3183 16.21 39.0833 16.12 38.9133 15.94C38.7433 15.75 38.6583 15.52 38.6583 15.25ZM41.3243 15.25C41.3243 14.98 41.4093 14.755 41.5793 14.575C41.7493 14.385 41.9843 14.29 42.2843 14.29C42.5743 14.29 42.7993 14.385 42.9593 14.575C43.1293 14.755 43.2143 14.98 43.2143 15.25C43.2143 15.52 43.1293 15.75 42.9593 15.94C42.7993 16.12 42.5743 16.21 42.2843 16.21C41.9843 16.21 41.7493 16.12 41.5793 15.94C41.4093 15.75 41.3243 15.52 41.3243 15.25ZM46.7296 15.25C46.7296 14.98 46.8146 14.755 46.9846 14.575C47.1546 14.385 47.3896 14.29 47.6896 14.29C47.9796 14.29 48.2046 14.385 48.3646 14.575C48.5346 14.755 48.6196 14.98 48.6196 15.25C48.6196 15.52 48.5346 15.75 48.3646 15.94C48.2046 16.12 47.9796 16.21 47.6896 16.21C47.3896 16.21 47.1546 16.12 46.9846 15.94C46.8146 15.75 46.7296 15.52 46.7296 15.25ZM49.3956 15.25C49.3956 14.98 49.4806 14.755 49.6506 14.575C49.8206 14.385 50.0556 14.29 50.3556 14.29C50.6456 14.29 50.8706 14.385 51.0306 14.575C51.2006 14.755 51.2856 14.98 51.2856 15.25C51.2856 15.52 51.2006 15.75 51.0306 15.94C50.8706 16.12 50.6456 16.21 50.3556 16.21C50.0556 16.21 49.8206 16.12 49.6506 15.94C49.4806 15.75 49.3956 15.52 49.3956 15.25ZM52.0616 15.25C52.0616 14.98 52.1466 14.755 52.3166 14.575C52.4866 14.385 52.7216 14.29 53.0216 14.29C53.3116 14.29 53.5366 14.385 53.6966 14.575C53.8666 14.755 53.9516 14.98 53.9516 15.25C53.9516 15.52 53.8666 15.75 53.6966 15.94C53.5366 16.12 53.3116 16.21 53.0216 16.21C52.7216 16.21 52.4866 16.12 52.3166 15.94C52.1466 15.75 52.0616 15.52 52.0616 15.25Z" fill="white"/>
<path d="M17 48H63V73C63 74.6569 61.6569 76 60 76H20C18.3431 76 17 74.6569 17 73V48Z" fill="#EF6622"/>
<rect x="14.5" y="38.5" width="51" height="10" rx="2.5" fill="#EF6622" stroke="#F0F0F0"/>
<path d="M31 44H49" stroke="white" stroke-width="2" stroke-linecap="round"/>
<circle cx="40" cy="33" r="11" fill="#EF6622" stroke="#F0F0F0"/>
<path d="M39.27 37.49H40.59V39.32C40.54 39.34 40.46 39.36 40.35 39.38C40.25 39.4 40.135 39.41 40.005 39.41C39.775 39.41 39.595 39.36 39.465 39.26C39.335 39.16 39.27 39.005 39.27 38.795V37.49ZM40.59 29.63H39.27V27.545C39.33 27.525 39.415 27.51 39.525 27.5C39.635 27.48 39.75 27.47 39.87 27.47C40.12 27.47 40.3 27.52 40.41 27.62C40.53 27.71 40.59 27.86 40.59 28.07V29.63ZM39.855 36.965C40.485 36.965 40.955 36.83 41.265 36.56C41.585 36.28 41.745 35.93 41.745 35.51C41.745 35.14 41.62 34.835 41.37 34.595C41.13 34.355 40.755 34.16 40.245 34.01L39.075 33.665C38.625 33.515 38.23 33.335 37.89 33.125C37.55 32.915 37.29 32.655 37.11 32.345C36.93 32.025 36.84 31.645 36.84 31.205C36.84 30.415 37.13 29.795 37.71 29.345C38.29 28.895 39.07 28.67 40.05 28.67C40.6 28.67 41.09 28.73 41.52 28.85C41.95 28.96 42.285 29.11 42.525 29.3C42.775 29.49 42.9 29.7 42.9 29.93C42.9 30.08 42.86 30.22 42.78 30.35C42.7 30.47 42.6 30.565 42.48 30.635C42.24 30.445 41.91 30.28 41.49 30.14C41.08 30 40.63 29.93 40.14 29.93C39.59 29.93 39.155 30.045 38.835 30.275C38.525 30.505 38.37 30.815 38.37 31.205C38.37 31.515 38.48 31.77 38.7 31.97C38.92 32.16 39.275 32.325 39.765 32.465L40.665 32.735C41.485 32.975 42.125 33.31 42.585 33.74C43.055 34.17 43.29 34.76 43.29 35.51C43.29 36.31 42.99 36.96 42.39 37.46C41.8 37.96 40.96 38.21 39.87 38.21C39.26 38.21 38.72 38.14 38.25 38C37.79 37.87 37.43 37.7 37.17 37.49C36.91 37.27 36.78 37.045 36.78 36.815C36.78 36.615 36.84 36.45 36.96 36.32C37.08 36.19 37.215 36.09 37.365 36.02C37.605 36.24 37.93 36.455 38.34 36.665C38.76 36.865 39.265 36.965 39.855 36.965Z" fill="#F0F0F0"/>
</svg>
