<svg width="79" height="79" viewBox="0 0 79 79" fill="none" xmlns="http://www.w3.org/2000/svg">
<g clip-path="url(#clip0_82_25)">
<circle cx="39.5" cy="15.5" r="15.5" fill="#EF6622"/>
<rect x="9" y="36" width="61" height="87" rx="22.5" fill="#EF6622"/>
<path d="M58.5294 49.4706C58.5294 48.1061 59.6355 47 61 47C62.3645 47 63.4706 48.1061 63.4706 49.4706V72.5294C63.4706 73.8939 62.3645 75 61 75C59.6355 75 58.5294 73.8939 58.5294 72.5294V49.4706Z" fill="#F0F0F0"/>
<path d="M49.4706 63.4706C48.1061 63.4706 47 62.3645 47 61C47 59.6355 48.1061 58.5294 49.4706 58.5294H72.5294C73.8939 58.5294 75 59.6355 75 61C75 62.3645 73.8939 63.4706 72.5294 63.4706H49.4706Z" fill="#F0F0F0"/>
<path d="M48.7575 64.4701L48.8769 64.5H49H57.5V72.5C57.5 73.0767 57.6648 73.9195 58.1885 74.6468C58.7489 75.4251 59.6741 76 61 76C62.3259 76 63.2511 75.4251 63.8115 74.6468C64.3352 73.9195 64.5 73.0767 64.5 72.5V64.5H72.5C73.0767 64.5 73.9195 64.3352 74.6468 63.8115C75.4251 63.2511 76 62.3259 76 61C76 59.758 75.5753 58.8474 74.919 58.2567C74.2946 57.6948 73.546 57.5 73 57.5H64.5V49V48.8769L64.4701 48.7575C64.2535 47.8908 63.2706 46 61 46C59.8029 46 58.9545 46.6388 58.4225 47.3244C57.9044 47.992 57.6264 48.7689 57.5194 49.3039L57.5 49.401V49.5V57.5H49H48.8769L48.7575 57.5299C47.8908 57.7465 46 58.7294 46 61C46 63.2706 47.8908 64.2535 48.7575 64.4701Z" stroke="#EF6622" stroke-width="2"/>
</g>
<defs>
<clipPath id="clip0_82_25">
<rect width="79" height="79" fill="white"/>
</clipPath>
</defs>
</svg>
