<svg width="40" height="40" viewBox="0 0 40 40" fill="none" xmlns="http://www.w3.org/2000/svg">
<path d="M16.667 20L23.3337 26.6667M23.3337 20L16.667 26.6667M30.0003 10L28.6655 30.0215C28.5487 31.775 28.4902 32.6518 28.1115 33.3167C27.778 33.902 27.275 34.3725 26.6688 34.6663C25.9803 35 25.1015 35 23.344 35H16.6566C14.8991 35 14.0204 35 13.3318 34.6663C12.7256 34.3725 12.2226 33.902 11.8892 33.3167C11.5104 32.6518 11.452 31.775 11.3351 30.0215L10.0003 10M6.66699 10H33.3337M26.667 10L26.216 8.64678C25.7788 7.33542 25.5602 6.67973 25.1548 6.19497C24.7968 5.76688 24.3372 5.43553 23.8178 5.2313C23.2297 5 22.5387 5 21.1563 5H18.8443C17.462 5 16.771 5 16.1828 5.2313C15.6635 5.43553 15.2038 5.76688 14.8458 6.19497C14.4404 6.67973 14.2219 7.33542 13.7847 8.64678L13.3337 10" stroke="#DEA1A1" stroke-width="3.67" stroke-linecap="round" stroke-linejoin="round"/>
</svg>
